<?xml version="1.0" encoding="iso-8859-1"?>
<!-- Generator: Adobe Illustrator 19.0.0, SVG Export Plug-In . SVG Version: 6.00 Build 0)  -->
<svg version="1.1" id="Layer_1" xmlns="http://www.w3.org/2000/svg" xmlns:xlink="http://www.w3.org/1999/xlink" x="0px" y="0px"
	 viewBox="0 0 513.32 513.32" style="enable-background:new 0 0 513.32 513.32;" xml:space="preserve">
<g>
	<path style="fill:#FFA800;" d="M78.12,49.911l4.267-7.68c14.507-29.013,40.96-41.813,71.68-27.307l0,0
		c75.947,34.987,108.373,147.627,68.267,226.133l-4.267,7.68c-15.36,29.867-28.16,41.813-58.88,27.307l0,0
		C72.146,235.084,35.453,133.537,78.12,49.911"/>
	<path style="fill:#FFA800;" d="M452.733,128.417H444.2c-3.413,0-6.827,0-9.387,0.853c29.867,3.413,52.907,29.013,52.907,59.733l0,0
		c0,93.867-81.92,153.6-153.6,153.6l0,0h8.533c93.867,0,170.667-58.88,170.667-153.6l0,0
		C512.466,154.871,486.013,128.417,452.733,128.417"/>
	<path style="fill:#FFA800;" d="M60.2,459.511l-5.973-5.973c-24.747-22.187-25.6-59.733-2.56-83.627l0,0
		c64.853-69.973,124.587-72.533,196.267-5.973l5.973,5.973c24.747,22.187,25.6,59.733,2.56,83.627l0,0
		C190.76,518.391,131.026,520.951,60.2,459.511"/>
</g>
<path style="fill:#FFFFFF;" d="M140.413,502.177c-25.6-4.267-52.053-18.773-80.213-42.667l-5.973-5.973
	c-24.747-22.187-25.6-59.733-2.56-83.627c30.72-32.427,59.733-50.347,89.6-53.76l0,0c-42.667,2.56-83.627,20.48-115.2,53.76l0,0
	c-23.04,23.893-22.187,60.587,2.56,83.627l5.973,5.973C64.466,485.111,102.013,499.617,140.413,502.177
	C140.413,503.031,140.413,502.177,140.413,502.177"/>
<path style="fill:#FF8800;" d="M279.506,370.764l-5.973-5.973c-34.987-32.427-79.36-48.64-123.733-47.787l0,0
	c30.72,0,63.147,15.36,98.133,47.787l5.973,5.973c24.747,22.187,25.6,59.733,2.56,83.627
	c-35.84,34.987-69.973,52.053-105.813,49.493l0,0c47.787,0.853,95.573-15.36,131.413-49.493
	C305.96,430.497,305.106,392.951,279.506,370.764"/>
<g>
	<path style="fill:#FFA800;" d="M305.106,370.764l-5.973-5.973c-34.987-32.427-79.36-48.64-123.733-47.787l0,0
		c30.72,0,63.147,15.36,98.133,47.787l5.973,5.973c24.747,22.187,25.6,59.733,2.56,83.627
		c-35.84,34.987-69.973,52.053-105.813,49.493l0,0c47.787,0.853,95.573-15.36,131.413-49.493
		C331.56,430.497,330.706,392.951,305.106,370.764"/>
	<path style="fill:#FFA800;" d="M324.733,333.217H316.2c-33.28,0-51.2-26.453-51.2-59.733l0,0
		c0-93.867,97.28-170.667,145.067-170.667h8.533c33.28,0,59.733,26.453,59.733,59.733l0,0
		C478.333,257.271,396.413,333.217,324.733,333.217"/>
</g>
<path style="fill:#FF8800;" d="M440.786,102.817h-8.533c-3.413,0-6.827,0-9.387,0.853c29.867,3.413,52.907,29.013,52.907,59.733l0,0
	c0,93.867-81.92,170.667-153.6,170.667l0,0h8.533c93.867,0,170.667-75.947,170.667-170.667l0,0
	C500.52,129.271,474.066,102.817,440.786,102.817"/>
<path style="fill:#FFA800;" d="M52.52,49.911l4.267-7.68c14.507-29.013,40.96-41.813,71.68-27.307l0,0
	c75.947,34.987,108.373,147.627,68.267,226.133l-4.267,7.68c-15.36,29.867-28.16,41.813-58.88,27.307l0,0
	C46.546,235.084,9.853,133.537,52.52,49.911"/>
<path style="fill:#FFFFFF;" d="M134.44,276.044C46.546,235.084,9.853,133.537,52.52,49.911l4.267-7.68
	c9.387-17.92,23.04-29.867,39.253-32.427c-26.453-3.413-52.907,8.533-64.853,32.427l-4.267,7.68
	c-42.667,83.627-6.827,185.173,81.92,226.133l0,0c12.8,5.973,26.453,6.827,39.253,5.12
	C143.826,280.311,139.56,278.604,134.44,276.044"/>
<path d="M333.266,341.751h-8.533c-37.547,0-68.267-30.72-68.267-68.267c0-98.987,80.213-179.2,179.2-179.2h8.533
	c37.547,0,68.267,30.72,68.267,68.267C512.466,261.537,432.253,341.751,333.266,341.751z M435.666,111.351
	c-89.6,0-162.133,72.533-162.133,162.133c0,28.16,23.04,51.2,51.2,51.2h8.533c89.6,0,162.133-72.533,162.133-162.133
	c0-28.16-23.04-51.2-51.2-51.2H435.666z"/>
<path d="M282.066,323.831c-5.12,0-8.533-3.413-8.533-8.533c0-60.587,49.493-110.08,110.933-110.08
	c54.613,0,93.867-35.84,93.867-84.48c0-5.12,3.413-8.533,8.533-8.533s8.533,3.413,8.533,8.533
	c0,58.88-46.933,101.547-110.933,101.547c-52.053,0-93.867,41.813-93.867,93.013C290.6,319.564,287.186,323.831,282.066,323.831z"/>
<path d="M136.146,290.551c-10.24,0-20.48-2.56-30.72-6.827c-41.813-18.773-73.387-52.053-91.307-92.16
	c-1.707-4.267,0-9.387,4.267-11.093s9.387,0,11.093,4.267c15.36,36.693,44.373,65.707,81.92,83.627
	c26.453,12.8,58.88,1.707,71.68-23.04l4.267-7.68c19.627-37.547,22.187-80.213,8.533-120.32
	c-14.507-41.813-45.227-75.093-86.187-94.72c-25.6-11.947-58.027-1.707-70.827,23.893L34.6,53.324
	c-11.093,21.333-16.213,43.52-17.067,66.56c0,5.12-4.267,8.533-8.533,8.533c-5.12,0-8.533-4.267-8.533-8.533
	c0.853-25.6,6.827-50.347,18.773-73.387l4.267-7.68c17.067-33.28,59.733-47.787,94.72-30.72
	c45.227,21.333,79.36,58.027,95.573,104.107c15.36,44.373,11.947,91.307-9.387,133.12l-4.267,7.68
	C187.346,276.897,161.746,290.551,136.146,290.551z"/>
<path d="M154.92,287.991c-0.853,0-2.56,0-3.413-0.853c-27.307-12.8-46.08-34.987-53.76-62.293
	c-7.68-27.307-2.56-58.027,13.653-82.773c21.333-46.933,0-99.84-48.64-122.027c-4.267-1.707-5.973-6.827-4.267-11.093
	C60.2,4.684,65.32,2.977,69.586,4.684c57.173,26.453,81.92,88.747,57.173,144.213c0,0.853-0.853,0.853-0.853,0.853
	c-13.653,21.333-18.773,46.08-11.947,69.12c5.973,22.187,22.187,40.96,44.373,52.053c4.267,1.707,5.973,6.827,4.267,11.093
	C161.746,285.431,158.333,287.991,154.92,287.991z"/>
<path d="M155.773,512.417c-45.227,0-91.307-15.36-127.147-46.08l0,0l-5.973-5.973C9,447.564,1.32,431.351,0.466,412.577
	c-0.853-17.92,6.827-34.987,19.627-48.64c68.267-72.533,184.32-75.947,259.413-5.973l5.973,5.973
	c13.653,11.947,21.333,29.013,22.187,46.933c0.853,17.92-6.827,34.987-19.627,48.64C252.2,494.497,204.413,512.417,155.773,512.417z
	 M39.72,453.537c67.413,58.027,173.227,55.467,235.52-5.973c9.387-9.387,15.36-22.187,14.507-35.84
	c0-13.653-5.973-25.6-16.213-34.987l-6.827-5.973c-68.267-63.147-174.08-60.587-235.52,5.12
	c-8.533,10.24-13.653,23.04-13.653,36.693s5.973,25.6,16.213,34.987L39.72,453.537z"/>
<path d="M230.013,452.684c-27.307,0-54.613-12.8-79.36-37.547c-41.813-41.813-87.893-40.96-136.533,3.413
	c-3.413,3.413-8.533,2.56-11.947-0.853c-3.413-3.413-2.56-8.533,0.853-11.947c54.613-49.493,111.787-50.347,159.573-2.56
	c41.813,42.667,88.747,43.52,130.56,3.413c3.413-3.413,8.533-3.413,11.947,0c3.413,3.413,3.413,8.533,0,11.947
	C281.213,441.591,255.613,452.684,230.013,452.684z"/>
<path d="M17.533,154.017c0-5.12-3.413-8.533-8.533-8.533s-8.533,3.413-8.533,8.533c0,5.12,3.413,8.533,8.533,8.533
	S17.533,159.137,17.533,154.017"/>
<g>
</g>
<g>
</g>
<g>
</g>
<g>
</g>
<g>
</g>
<g>
</g>
<g>
</g>
<g>
</g>
<g>
</g>
<g>
</g>
<g>
</g>
<g>
</g>
<g>
</g>
<g>
</g>
<g>
</g>
</svg>
